<?xml version='1.0' encoding='utf-8'?>
<svg xmlns="http://www.w3.org/2000/svg" width="210mm" height="210mm" version="1.1" viewBox="0 0 210 210"> <rect x="14.717" y="17.75" width="180" height="180" ry="0" fill="#222536" stroke="#222536" stroke-dashoffset="56.693" stroke-linecap="round" stroke-linejoin="round" stroke-width=".2476" style="paint-order:stroke fill markers"/> <path d="m107.72 72.395c-0.0389 0-0.16806 0.05105-0.31191 0.12542-0.16432 0.08499-0.65533 0.24739-1.091 0.36089-0.43571 0.1135-0.99605 0.29265-1.245 0.39815-0.60816 0.25763-3.3296 1.1116-5.1457 1.6147-3.2432 0.8983-6.2616 2.125-7.1761 2.9165-0.26434 0.22875-0.4962 0.4004-0.5152 0.38135-0.01908-0.01906 0.07932-0.44011 0.21847-0.93569 0.30071-1.0701 0.29486-1.9234-0.01534-2.2664-0.26945-0.29796-0.88434-0.59684-1.2279-0.59684-0.61676 0-1.7296 0.99278-1.9416 1.7322-0.05196 0.18105-0.09434 0.48593-0.09434 0.67738v0.34805l0.37718-0.36073c0.49287-0.47112 0.73147-0.58574 1.2192-0.58574 0.32953 0 0.43994 0.05317 0.61108 0.29351 0.36655 0.51496 0.36168 0.8091-0.02817 1.6958-0.19566 0.44493-0.38717 0.98309-0.42565 1.1959-0.0384 0.2128-0.11268 0.46966-0.16505 0.57083-0.05212 0.10118-0.06811 0.25403-0.03515 0.33981 0.11155 0.29076 0.85398 0.08774 2.3705-0.64821 1.3255-0.6433 3.289-1.3547 5.3329-1.9324 0.4151-0.11731 1.298-0.39318 1.9621-0.61301 0.66417-0.21985 1.7417-0.55763 2.3946-0.75064 0.65297-0.19302 1.2798-0.40044 1.3929-0.46094 0.11301-0.06051 0.5523-0.21175 0.97608-0.336 0.74666-0.21893 0.80398-0.259 1.8522-1.2955 0.595-0.58822 1.0818-1.1291 1.0818-1.2021 0-0.10638-0.14094-0.36589-0.35981-0.66279-2e-3 -0.0023-6e-3 -0.0034-0.011-0.0035zm2.9977 0.8981c-0.0408-0.0058-0.0825 0.02663-0.14954 0.09371-0.214 0.21413-0.62675 1.5202-0.77296 2.4458-0.19866 1.2572 0.10806 2.3362 0.68292 2.4022 0.66897 0.07687 0.94093-0.03258 1.5906-0.64028 0.62732-0.5869 1.0712-1.1754 1.5946-2.1141 0.20305-0.36415 0.26321-0.6116 0.26321-1.0819v-0.60984l-0.33676 0.3777c-0.18518 0.20769-0.40836 0.591-0.49579 0.85196-0.25671 0.76594-0.89044 1.2864-1.5665 1.2864-0.5799 0-0.67043-0.16965-0.66645-1.2482 2e-3 -0.50331 0.0348-1.0324 0.0732-1.1756 0.0445-0.16579 0.0182-0.33024-0.0727-0.4527-0.0633-0.08548-0.10318-0.1295-0.14394-0.13525zm13.69 3.8671-0.66345 0.23578c-0.828 0.2943-2.2867 0.68042-3.2777 0.86766-1.7465 0.33002-7.3311 1.9581-9.2569 2.6986-1.2266 0.47162-1.664 0.741-2.0126 1.2393-0.13833 0.19782-0.37596 0.50878-0.5281 0.69102-0.15222 0.18225-0.27676 0.38673-0.27676 0.45444 0 0.06773-0.11325 0.25769-0.25159 0.4221-0.13834 0.16442-0.25151 0.36817-0.25151 0.45286 0 0.1096 0.0507 0.13132 0.17601 0.07516 0.50018-0.2241 3.49-1.1778 4.8549-1.5485 0.8578-0.233 2.1256-0.58527 2.8174-0.78299 0.69178-0.19771 1.5294-0.42521 1.8616-0.5055 0.33204-0.08029 1.2376-0.30467 2.0123-0.49853 0.77475-0.19386 1.6618-0.40395 1.9711-0.46697 0.52892-0.10776 0.97235-0.36808 1.5355-0.90128 1.2762-1.2082 1.7754-1.7041 1.7754-1.7615 0-0.03743-0.1096-0.20375-0.24306-0.36976zm-39.866 1.0565c-0.11561 0-1.5657 2.6823-1.7573 3.2507-0.08971 0.26604-0.14914 0.62764-0.13192 0.8036 0.02801 0.28882 0.10822 0.35931 0.82402 0.72384 0.44416 0.22619 1.1081 0.68732 1.5094 1.0484 1.1186 1.0067 2.5185 1.8547 4.7751 2.8927 2.7426 1.2616 3.4274 1.6491 4.2181 2.3864 0.68528 0.63889 1.2316 1.3852 1.2316 1.6824 0 0.29954-0.8772 0.93785-3.0356 2.2086-0.68284 0.40202-3.431 1.8628-3.7059 1.9698-0.08297 0.03232-0.76224 0.34486-1.5094 0.69451-2.0497 0.95923-3.0716 1.3943-4.1253 1.7563-0.52575 0.18062-1.1038 0.39344-1.2845 0.47284-0.78562 0.34504-3.667 1.2289-4.3824 1.3443-1.1669 0.18824-2.4536 0.0799-3.0762-0.25893-0.77556-0.42213-1.2001-0.82045-1.3148-1.2333-0.19647-0.70731-0.12957-1.0098 0.46949-2.123 1.3707-2.5467 1.3482-2.4845 1.3159-3.6422l-0.02882-1.0323-0.28098 0.49552c-0.15458 0.27259-0.45187 0.76728-0.66076 1.0993-0.54645 0.86892-1.0678 2.2321-1.5285 3.9957-0.40308 1.5431-0.54434 2.2416-0.85025 4.205-0.09052 0.58108-0.27481 1.4798-0.40958 1.9971-0.71865 2.7598-0.66458 5.1174 0.16286 7.1051 0.16854 0.40471 0.39488 0.81594 0.50302 0.9138 0.10814 0.0978 0.19663 0.23178 0.19663 0.29778 0 0.2901 1.7404 1.7127 2.6966 2.2042 0.18275 0.0939 0.35486 0.22956 0.38246 0.30143 0.0276 0.0719-0.08248 0.4203-0.24445 0.77443-1.0092 2.2061-1.2975 3.166-1.4172 4.719-0.05342 0.69175-0.07209 1.3816-0.0414 1.533 0.08476 0.41964 1.3966 1.7072 1.9445 1.9083 0.78749 0.2892 1.335 0.18293 1.5204-0.29509 0.14816-0.38174 0.38652-1.9777 0.38961-2.5987 0.0016-0.51984-0.18664-0.93139-0.37369-0.81581-0.05732 0.0354-0.13663 0.32536-0.1765 0.64425-0.10489 0.83973-0.28236 1.1334-0.68471 1.1334-0.403 0-1.0329-0.32108-1.4189-0.72304-0.24526-0.25541-0.29137-0.3846-0.28829-0.82136 0.0024-0.46717 0.16602-1.01 0.58063-1.927 0.24307-0.53745 0.63365-1.7948 0.76111-2.4492 0.06836-0.35093 0.17804-0.65867 0.24372-0.68389 0.06576-0.0252 0.45496 0.0485 0.86486 0.1638 2.0406 0.57414 5.1755 0.23373 7.1848-0.77997 1.8863-0.95164 3.5228-2.0773 5.3666-3.6917 0.57195-0.50078 1.2058-1.044 1.4087-1.207 0.2028-0.16302 0.70834-0.59436 1.1234-0.95853 0.41502-0.36415 1.1817-1.023 1.7037-1.4643 0.52202-0.44131 1.0922-0.93822 1.267-1.1042 1.1598-1.1009 2.3547-2.0733 2.7022-2.1991 0.17422-0.0631 0.18421-0.0271 0.12714 0.46158-0.03402 0.29155-0.0919 1.0374-0.12843 1.6575-0.11967 2.0313 0.25094 2.9061 1.8034 4.2573 0.954 0.83035 2.1948 1.637 2.3975 1.5585 0.25159-0.0974 0.58039-0.69393 0.7253-1.3158 0.0784-0.33608 0.19923-0.71724 0.26873-0.84705 0.19711-0.36833 0.80551-2.116 0.80551-2.3141 0-0.32067 0.26775-0.41167 1.5067-0.512 0.67269-0.0545 1.6615-0.20625 2.1975-0.33727 1.0227-0.24994 3.0644-0.89686 3.363-1.0656 0.0961-0.0543 0.22301-0.0988 0.2822-0.0988 0.0593 0 0.38148-0.13573 0.71613-0.30175 0.33456-0.16603 0.64314-0.30191 0.6856-0.30191 0.0425 0 0.59265-0.3005 1.2224-0.66771 0.62975-0.36724 1.2807-0.74588 1.4467-0.8415 0.54759-0.31534 1.3982-0.83674 2.1043-1.2899 0.38254-0.24551 1.107-0.62861 1.6099-0.85132 0.50294-0.22272 1.0176-0.4721 1.1439-0.55418 0.12624-0.08213 0.24997-0.12877 0.27514-0.1037 0.025 0.02509-0.0306 0.38214-0.1239 0.79345-0.1346 0.59359-0.17056 1.2875-0.17454 3.3639-5e-3 2.4909 6e-3 2.6391 0.21709 3.0969 0.33659 0.72906 1.2726 1.6599 2.0075 1.9963 0.76151 0.34861 2.1629 0.53999 3.3166 0.45301 1.7358-0.13085 4.2815-0.77173 6.4277-1.6181 0.8854-0.34921 2.1306-0.82766 2.7671-1.0633 1.4244-0.52741 2.2-0.90924 2.65-1.3044 0.18956-0.16643 0.38507-0.30269 0.43434-0.30269 0.20856 0 0.85706-0.65283 1.0336-1.0405 0.10522-0.23096 0.24063-0.73642 0.30079-1.1234 0.11098-0.71383 0.19712-1.1663 0.41177-2.1626 0.21424-0.99392 0.1877-1.9786-0.0786-2.9181-0.36565-1.29-0.37459-1.3138-0.72482-1.9592-0.45349-0.83558-0.64671-1.0853-1.5307-1.9776-0.58664-0.59214-0.86178-0.79737-1.1384-0.84926-1.7198-0.32264-3.5858 1.4524-4.5555 4.3334-0.39115 1.1619-0.77134 2.7693-0.92794 3.9241-0.23787 1.754-0.29714 2.0981-0.37467 2.1736-0.14345 0.13972-3.5797 0.79177-5.059 0.95994-2.1444 0.24378-2.8187 0.0701-3.7498-0.9655-0.46982-0.52255-0.67741-1.0414-0.67741-1.693 0-0.52778 0.25614-1.8628 0.42322-2.2059 0.14808-0.30402 0.39293-0.37416 2.7463-0.7879 0.77475-0.13621 1.7031-0.29968 2.0627-0.36312 0.35973-0.06343 0.70858-0.13548 0.77524-0.16014 0.0667-0.0247 0.36939-0.44403 0.67245-0.93172 0.50188-0.80746 0.90805-1.397 1.4674-2.1297 0.24672-0.32324 0.25362-0.47728 0.0413-0.92253l-0.16278-0.34139-1.7742-0.05851c-1.7912-0.05903-4.0555-0.35789-5.8493-0.77204-5.237-1.2091-6.0263-1.4507-11.169-3.4164-3.4716-1.3271-3.6593-1.3414-5.6902-0.43668-1.0348 0.46098-1.0814 0.49548-1.3249 0.98183-0.13882 0.27723-0.58217 1.0474-0.98533 1.7115-0.81388 1.3406-0.8453 1.4198-0.67944 1.7188 0.11009 0.19842 0.20475 0.20998 1.7762 0.22088 0.91292 0.0063 1.9229 0.05875 2.2443 0.1167 0.73196 0.13194 2.0051 0.16503 2.3693 0.06152 0.21588-0.06133 0.58713 0.04371 1.7106 0.48425 0.78919 0.30944 2.4729 0.90359 3.7416 1.3202 1.9522 0.64103 2.8369 0.87253 4.6611 1.2201 0.12454 0.02373 0.22643 0.08285 0.22643 0.13129 0 0.10892-1.938 1.2318-3.723 2.1571-2.6755 1.387-5.8659 2.2739-8.3091 2.3101-1.128 0.0167-1.7635-0.0899-2.738-0.45968-0.53046-0.20126-0.95457-0.6164-2.5869-2.5316-0.59606-0.69941-0.85755-0.70587-2.0851-0.05184-0.53809 0.28668-1.3397 0.82122-1.7815 1.188-0.44173 0.36672-1.2694 1.0494-1.8392 1.517-0.56967 0.46756-1.6696 1.3969-2.4444 2.0653-4.2247 3.6448-5.5755 4.6101-8.0649 5.7625-2.0924 0.96863-5.6639 1.2372-7.5816 0.57004-0.85349-0.29692-1.9486-0.91808-2.6924-1.5271-0.9307-0.76213-1.9386-2.7784-2.0884-4.1777-0.06941-0.64762 0.0073-1.4825 0.13598-1.48 0.03669 0 0.29308 0.20682 0.56975 0.4592 0.27668 0.25237 0.8427 0.62581 1.2577 0.82977 0.73927 0.36335 0.77832 0.37068 1.9118 0.36675 1.0089-3e-3 1.2924-0.0453 2.2136-0.3268 2.4316-0.74293 4.0498-1.3133 5.3328-1.8798 1.1688-0.51599 3.704-1.6959 4.3772-2.0372 5.0649-2.5681 7.4037-4.1681 7.6946-5.2632 0.06584-0.24771 0.31524-1.0616 0.55425-1.8087 0.45845-1.4332 0.87241-3.5661 0.88808-4.5782 0.01234-0.78662-0.22975-1.5652-0.71938-2.3142-0.84944-1.2995-1.3894-1.655-5.0468-3.3221-0.69178-0.31533-1.5861-0.7248-1.9873-0.90984l-0.72953-0.33631v-0.44588c0-0.52204-0.19346-0.70409-1.3585-1.2791-0.86023-0.42462-1.6732-0.9259-1.853-1.1424-0.07355-0.08864-0.16927-0.1611-0.21295-0.1611zm18.568 1.7777c-0.0459 0.0029-0.0798 0.03837-0.1238 0.09862-0.0804 0.1099-0.12771 0.50453-0.12771 1.0651 0 0.85 0.0187 0.9249 0.40974 1.6502 0.22537 0.4179 0.38514 0.82353 0.35535 0.90143-0.0323 0.08421-0.19631 0.14176-0.40414 0.14176-0.53306 0-0.82524-0.32707-1.1691-1.3082-0.46576-1.3289-0.59557-1.5723-1.02-1.9134-0.62674-0.50377-0.71994-0.38896-0.63381 0.78187 0.0468 0.63582 0.13851 1.1119 0.26085 1.354 0.25525 0.50477 0.23828 0.70006-0.0878 1.0042-0.61156 0.57042-1.0378 0.59747-1.219 0.07738-0.05707-0.16372-0.13558-0.68927-0.17447-1.168-0.03881-0.47871-0.1251-1.056-0.19184-1.2829-0.26434-0.89847-1.1178-0.62491-1.2327 0.39514-0.0535 0.47444-0.05147 0.47848 0.20596 0.41385 0.14589-0.03661 0.28894-0.01886 0.32555 0.04044 0.03597 0.05817 0.12933 0.74386 0.20743 1.5238 0.17365 1.735 0.27343 2.1252 0.61091 2.3907 0.32344 0.25445 0.33943 0.25452 0.86543 0.0015 0.37037-0.17811 0.69925-0.51394 1.2102-1.2358 0.11991-0.16946 0.14792-0.15452 0.37784 0.20074 0.29981 0.46339 0.8621 0.75252 1.5883 0.8166 0.52209 0.04608 0.54832 0.03569 0.98947-0.3934 0.77118-0.7502 1.1437-1.7454 0.9385-2.5074-0.22789-0.84644-1.068-2.363-1.5261-2.7552-0.24802-0.21225-0.35843-0.29788-0.43499-0.29302zm27.014 2.4988-0.70525 0.0214c-0.6619 0.02002-0.96797 0.10716-1.7932 0.51058-0.49872 0.24376-0.97227 0.85336-1.5405 1.9833-0.45959 0.91362-0.50075 1.0518-0.44887 1.5002 0.0679 0.5871 0.45447 1.2168 0.89108 1.452 0.17081 0.09197 0.44311 0.28135 0.60523 0.42098l0.29479 0.25386-0.53704 0.35994c-0.81112 0.54346-1.3092 0.81212-3.8438 2.074-2.6204 1.3046-2.6834 1.3424-2.4133 1.4486 0.10221 0.04022 0.26653 0.07631 0.36517 0.08023 0.18145 0.0071 1.7482-0.55981 1.9337-0.69975 0.0554-0.04174 0.55335-0.26586 1.1068-0.49789 1.2564-0.52685 2.1252-0.9686 3.2755-1.666 0.99086-0.60086 1.0417-0.60352 1.6302-0.08087 0.20767 0.18447 0.42467 0.33552 0.48231 0.33552 0.14727 0 1.4039-1.2539 1.4039-1.4008 0-0.06638-0.2291-0.36294-0.50911-0.65899l-0.50903-0.53832 0.30242-0.53722c0.45276-0.80443 0.93979-2.2713 0.95457-2.8751 0.0121-0.50085-0.0107-0.55013-0.46657-1.0062zm-10.897 0.66422c-0.26352-0.01138-0.46332 0.0923-0.69794 0.31665-0.51698 0.49426-0.92542 1.6027-1.2278 3.3321-0.26076 1.4915-0.46324 2.1769-0.64282 2.1769-0.10286 0-0.4841-1.0161-0.81777-2.1788-0.42167-1.4699-0.82045-2.0381-1.7131-2.4417-0.4755-0.215-0.77856-0.24968-1.2896-0.14747-0.50456 0.10092-0.61051 0.64518-0.29161 1.4978 0.17276 0.46192 0.35729 0.56254 0.90513 0.4936 0.32027-0.04031 0.53192-0.01798 0.63405 0.06676 0.29543 0.24516 0.92753 1.4591 1.1492 2.2067 0.28747 0.97015 0.55254 1.5032 0.88824 1.7856 0.35567 0.29919 0.45163 0.28679 0.77889-0.10021 0.55741-0.65913 1.042-1.9565 1.1932-3.1946 0.0372-0.30439 0.16302-0.90432 0.27952-1.3332l0.21189-0.77981h0.34609c0.47322 0 0.91536 0.34192 1.1587 0.8962 0.11154 0.25414 0.25142 0.49347 0.31093 0.53182 0.0635 0.04093 0.27035-0.18677 0.50075-0.55117 0.37394-0.5914 0.3866-0.63775 0.26499-0.97532-0.2632-0.73044-0.5907-1.1158-1.1634-1.369-0.3288-0.14542-0.57243-0.22392-0.77751-0.23277zm9.3928 0.79758c0.23008 0.0057 0.46559 0.06871 0.67643 0.19725 0.38108 0.23237 0.41696 0.51862 0.18502 1.477-0.0781 0.32268-0.16968 0.71119-0.20329 0.86337-0.0779 0.3522-0.29478 0.35509-0.81371 0.01111-0.95295-0.63147-1.1928-1.0902-0.9665-1.846 0.13525-0.4512 0.6157-0.71535 1.122-0.70276zm-44.293 2.6131c-0.55871 0-1.2682 0.67814-1.7436 1.6665-0.36566 0.76025-0.8198 2.4619-0.93833 3.5155-0.0975 0.86592-0.27619 0.78471-0.66474-0.30191-0.86803-2.4276-1.7601-3.7654-2.8527-4.279-0.5139-0.24156-1.4666-0.50042-1.842-0.50042-0.48419 0-0.53826 0.18828-0.60507 2.1026l-0.06186 1.7713 0.29844 0.28493c0.33684 0.32164 0.66563 0.30643 1.0457-0.0482 0.19281-0.17995 0.25768-0.1884 0.61757-0.08055 0.5191 0.1555 0.8604 0.45868 1.6706 1.4845 0.66547 0.84244 1.5714 2.4878 1.5714 2.8538 0 0.10868 0.04684 0.28509 0.10416 0.39213 0.05732 0.10706 0.1467 0.19471 0.19882 0.19471 0.31207 0 0.91658-1.7948 1.2032-3.5721 0.11601-0.71944 0.25411-1.4665 0.30688-1.6602 0.24372-0.89461 1.2727-1.3627 1.9601-0.8916 0.32555 0.22306 0.95603 1.1295 0.95603 1.3744 0 0.0665 0.07558 0.12083 0.16805 0.12083 0.21506 0 0.53622-0.28834 0.53622-0.48156 0-0.08174 0.10026-0.3109 0.22285-0.50915 0.42338-0.68506 0.1739-1.952-0.53996-2.7422-0.31272-0.34621-1.1208-0.69436-1.6118-0.69436zm22.585 8.6833c-0.057-0.0087-0.1057 0.03258-0.18153 0.13128-0.95489 1.2429-1.3376 3.0076-0.75445 3.4798 0.67871 0.5496 1.9653-0.18474 2.5836-1.4748 0.39058-0.81499 0.39245-0.82964 0.14053-1.1575-0.18437-0.23986-0.19857-0.24242-0.38871-0.0704-0.10846 0.09819-0.25354 0.37961-0.3223 0.62537-0.16472 0.58836-0.53192 0.95186-0.96171 0.95186-0.24445 0-0.34869-0.05349-0.39627-0.20343-0.0677-0.21345 0.30152-1.4635 0.46146-1.5623 0.14727-0.091 0.10765-0.51141-0.0614-0.65169-0.0478-0.03964-0.085-0.06295-0.11926-0.06818zm27.548 2.2901c0.28861-0.0061 0.37386 0.06616 0.68325 0.34567 0.79862 0.72149 1.8253 2.2755 1.8253 2.7628 0 0.2893-0.62245 0.57467-2.8174 1.292-1.0239 0.33457-2.2325 0.72073-2.6859 0.85815l-0.82443 0.24989-0.0326-0.21644c-0.0977-0.64895 0.72336-2.6914 1.5229-3.7886 0.14118-0.19372 0.49571-0.59161 0.78806-0.88431 0.50448-0.50528 0.56366-0.53528 1.1687-0.59176 0.15717-0.01468 0.27595-0.0254 0.37215-0.02743zm-18.544 4.6228c-0.0714 0-0.1942 0.1019-0.27286 0.22643-0.86486 1.3694-1.3755 2.7939-1.2151 3.3898 0.10993 0.40825 0.28837 0.60979 0.75656 0.85387 0.39026 0.20349 0.36184 0.20717 1.0405-0.13542 0.7292-0.36807 1.3229-1.0585 1.372-1.5953 0.0192-0.2089 0.0665-0.54845 0.10513-0.7546 0.057-0.3036 0.0402-0.37485-0.088-0.37485-0.0995 0-0.19858 0.14979-0.26702 0.40402-0.29454 1.0939-1.1762 1.8015-1.8578 1.491-0.58014-0.26433-0.45325-1.2632 0.33383-2.628 0.32588-0.56514 0.35892-0.87686 0.0927-0.87686zm-17.409 0.47125c0.91341 0.0331 1.6159 0.7366 2.2232 1.6004 0.60727 0.8638 1.0322 1.7639 0.75413 2.6346-0.91341-0.0331-1.5038-0.78156-2.111-1.6454-0.60718-0.86375-1.1442-1.7189-0.86624-2.5895zm-18.284 1.2447c-0.14922 6e-3 -0.45358 0.35911-0.62301 0.74651-0.17804 0.40709-0.2218 0.70199-0.22512 1.5119-0.0041 1.0552 0.1359 1.5313 0.51642 1.7529 0.70639 0.41147 1.971-0.64496 2.5326-2.1156 0.17049-0.4464 0.31004-0.85045 0.31004-0.89794 0-0.11533-0.41672-0.40273-0.50489-0.34821-0.03832 0.0237-0.17081 0.32047-0.29446 0.65947-0.12364 0.33899-0.38449 0.79314-0.57974 1.0092-0.29292 0.32426-0.42102 0.39292-0.73334 0.39292-0.46616 0-0.56423-0.11437-0.64664-0.7546-0.04676-0.36358-0.0084-0.69657 0.13793-1.2008 0.11147-0.38379 0.18534-0.71521 0.16383-0.73654-0.01413-0.0141-0.03231-0.0202-0.05358-0.0193zm57.894 2.641c-0.11431 8e-3 -0.21904 0.10077-0.45821 0.33235-0.50911 0.49307-1.7222 2.1021-2.051 2.7205-0.1368 0.25724-0.2895 0.51775-0.33935 0.57892-0.0498 0.0612-0.15945 0.34536-0.24388 0.63156-0.0844 0.28617-0.20556 0.61758-0.26921 0.73652-0.21571 0.40295-0.40292 1.3157-0.40292 1.964 0 0.91876 0.29608 1.649 0.87542 2.159 0.25354 0.22316 0.55067 0.40576 0.66027 0.40576 0.29779 0 1.8535-1.5642 2.2016-2.2137 0.16326-0.30438 0.37117-0.67253 0.4621-0.81819 0.15279-0.24401 0.15295-0.2777 3e-3 -0.42764-0.0896-0.0896-0.19119-0.16285-0.22578-0.16285-0.0347 0-0.34982 0.28668-0.70021 0.63711-0.35048 0.35044-0.78425 0.6981-0.96391 0.77252-0.29519 0.12226-0.34024 0.11681-0.46714-0.0568-0.20775-0.28409-0.43685-1.1298-0.43255-1.5975 7e-3 -0.78765 0.4673-2.2601 0.81185-2.5962 0.0983-0.096 0.32547-0.39031 0.5048-0.65408 0.41632-0.61222 1.1806-1.5317 1.4674-1.7653 0.27278-0.22223 0.21059-0.41736-0.18478-0.58114-0.10651-0.0441-0.17844-0.0697-0.24704-0.0649zm-26.505 2.5386c-1.6364-4e-3 -1.9096 0.0633-3.187 0.78013-0.63787 0.35795-0.74219 0.45882-0.8962 0.86735-0.0959 0.25427-0.46153 1.0474-0.81266 1.7623-0.35112 0.71493-0.63819 1.3531-0.63819 1.4182s0.0835 0.19408 0.18567 0.28653c0.17365 0.15716 0.20134 0.15645 0.4276-0.0111 0.39707-0.29405 1.0526-0.6245 1.6405-0.82675 0.49766-0.17125 0.68098-0.18039 1.8409-0.0917 1.5252 0.11664 2.697 0.30715 2.697 0.43843 0 0.14224-0.90692 0.80325-1.8112 1.3199-1.1033 0.63036-2.3926 1.2519-3.8239 1.8435-1.2726 0.52594-1.8482 0.89177-1.7225 1.095 0.10441 0.16892 1.1065 0.15189 1.8072-0.0306 0.31865-0.083 0.83758-0.15091 1.1531-0.15096 0.737 0 1.8573-0.23514 2.4352-0.51089 1.1184-0.53363 2.5302-1.856 3.4329-3.2158 1.5063-2.269 1.9272-2.9698 2.0669-3.44l0.15157-0.5101-0.28512-0.28209c-0.23697-0.23456-0.42069-0.29986-1.0899-0.38674-0.4427-0.0575-1.0992-0.16001-1.459-0.22801s-1.3106-0.12424-2.113-0.1267zm15.565 0.30951c-5e-3 -4e-5 -0.01 8.1e-4 -0.0136 2e-3 -0.14175 0.0559-0.51219 0.63393-0.60604 0.94552-0.0727 0.24162-0.59021 1.4025-0.76143 1.708-0.42184 0.75311-0.61262 1.215-0.58413 1.413 0.0226 0.15523 0.23942 0.37492 0.63795 0.64631 0.64258 0.43756 0.89287 0.81791 1.0007 1.5205 0.0346 0.22558 0.24233 0.71733 0.46169 1.0928 0.21945 0.37547 0.39894 0.70732 0.39894 0.73748 0 0.0301 0.11334 0.20327 0.25168 0.38467 0.13834 0.18139 0.25151 0.35399 0.25151 0.38357 0 0.0546 1.5412 2.3753 1.9444 2.9279 0.12113 0.16603 0.42379 0.56804 0.67245 0.89335 1.2072 1.5795 1.2365 1.6514 0.88492 2.1703-0.51463 0.75958-2.6577 1.509-6.2185 2.1746-1.1061 0.20675-1.127 0.20249-1.384-0.28256-0.12462-0.23519-0.22626-0.4665-0.22626-0.51391 0-0.14357-0.60645-1.3899-0.93809-1.9262-0.8509-1.3764-2.3473-3.051-2.917-3.2645-0.50562-0.18951-1.1001-0.11977-1.9341 0.22675-1.3157 0.54674-2.2066 1.1906-2.8804 2.0819-0.40421 0.53474-0.58988 1.0064-0.93062 2.3645-0.13882 0.55339-0.34649 1.2779-0.46145 1.6099-0.11626 0.33577-0.23584 1.0084-0.26937 1.5152-0.0719 1.0854 0.0443 1.4099 0.77231 2.1574 0.72198 0.7412 1.4856 1.0167 3.3356 1.2032 0.77767 0.0784 3.2579-8e-3 4.5382-0.15746 0.50253-0.0588 0.57844-0.0454 0.57844 0.10212 0 0.0934-0.12454 0.28576-0.27668 0.42733-0.29843 0.2776-1.5948 1.1418-1.7136 1.1418-0.0397 0-0.34414 0.16579-0.6761 0.36802-0.85155 0.51869-3.188 1.7043-4.0248 2.0425-0.38742 0.15654-1.3155 0.57846-2.0626 0.93758-5.7153 2.7474-8.3354 3.0542-10.917 1.2782-0.49945-0.34354-1.4615-1.3249-1.8159-1.8525-0.6248-0.93009-1.2158-2.3745-1.4009-3.4232-0.12673-0.71773-0.08378-2.483 0.06389-2.6276 0.46372-0.45382 3.518-0.80992 4.7012-0.54816 1.2351 0.27325 2.2748 0.99008 2.81 1.9372 0.42703 0.75578 0.65686 0.74349 1.0614-0.0561 0.14589-0.2883 0.26523-0.55483 0.26523-0.59239 0-0.0376 0.25541-0.59323 0.5674-1.2347l0.56716-1.1664-0.15271-0.38895c-0.23909-0.60869-0.86421-1.4886-1.3205-1.859-0.5842-0.47413-1.5548-0.9396-2.353-1.1283-1.0823-0.2559-2.8386-0.11283-4.5748 0.37262-0.26109 0.0729-0.50408 0.10346-0.5398 0.0677-0.0358-0.0357 0.0257-0.21445 0.13672-0.3972 0.31913-0.52568 0.60888-2.318 0.32944-2.0379-0.18388 0.18431-0.63072 1.1056-0.91746 1.8912-0.15913 0.43617-0.34382 0.85845-0.41031 0.93853-0.0664 0.0801-0.96188 0.57012-1.99 1.089-1.0281 0.51887-2.2472 1.171-2.7091 1.4491-1.999 1.2038-6.1782 2.4329-7.6956 2.2633-1.1337-0.12667-2.6277-0.84265-3.2152-1.5409-0.14126-0.16793-0.38514-0.56666-0.54191-0.88605-0.25622-0.5219-0.28382-0.67774-0.27343-1.5366 0.0097-0.788 0.07745-1.1769 0.38555-2.2137 0.47509-1.5989 0.86291-2.4855 1.4748-3.3708 0.67529-0.97711 1.629-2.5698 1.5725-2.6263-0.07388-0.0738-1.5874 1.8344-2.4142 3.0438-0.63974 0.93596-0.8418 1.345-1.3619 2.7557-0.86299 2.3409-1.4164 4.5223-1.425 5.6166-0.0093 1.2061 0.6274 2.6777 1.497 3.4596 0.26458 0.23795 1.0121 0.70344 1.6611 1.0345l1.1797 0.60176 0.9734-0.0122c1.4355-0.018 3.6279-0.54339 5.3722-1.2872 0.20572-0.0878 0.39821-0.15951 0.42768-0.15951 0.10992-1e-5 0.04546 0.22697-0.23706 0.8342-0.59094 1.2701-0.8453 2.235-0.82443 3.1291 0.02176 0.93276 0.208 1.2418 0.97373 1.615 0.46129 0.2248 0.83823 0.0705 1.6892-0.69118 0.50497-0.45188 0.88337-0.90801 1.2041-1.4512 0.25728-0.43571 0.46779-0.83574 0.46779-0.88907 0-0.0533-0.10643-0.19682-0.23641-0.31903-0.27026-0.25388-0.29957-0.23228-0.66109 0.48885-0.44189 0.88167-1.2915 1.5367-1.7055 1.3151-0.10091-0.054-0.26426-0.30986-0.36306-0.56861-0.28739-0.75246-0.15937-1.6274 0.41242-2.8185 0.72311-1.5065 0.7823-1.5561 3.5374-2.9656 0.75486-0.3862 1.2715-0.59589 1.3283-0.53912 0.05383 0.054 0.05797 0.26142 0.0098 0.49535-0.40738 1.9791-0.4945 4.8368-0.1825 5.9869 0.30923 1.1396 1.4139 3.0254 2.3738 4.0523 0.84067 0.89938 2.4079 1.8781 3.3855 2.1143 0.11065 0.0267 0.6429 0.0538 1.1827 0.0602 0.96537 0.0115 1.7936-0.14637 3.4458-0.65661 0.70265-0.21703 2.1082-0.79502 2.7671-1.1379 0.30436-0.15836 1.142-0.543 1.8615-0.85482 1.5447-0.6694 3.0288-1.3982 4.0752-2.0016 1.6351-0.94282 2.9424-1.789 3.3479-2.1669 0.23389-0.21801 0.51991-0.47978 0.63551-0.58177 0.54768-0.48315 1.0904-1.3379 1.8909-2.9777 0.6045-1.2383 0.92274-1.7861 1.0376-1.7861 0.42394 0 3.1459-0.75641 3.6574-1.0164 0.31573-0.16039 0.62593-0.29177 0.68942-0.29177 0.27449 0 1.4522-0.6687 1.8046-1.0246 0.39976-0.40377 0.76379-1.1112 1.1039-2.1449 0.34601-1.0515 0.71224-1.9466 0.95652-2.3379 0.15839-0.25376 0.34431-0.91277 0.56302-1.996 0.32336-1.6015 0.3249-1.6233 0.16253-2.2499-0.18689-0.72141-0.61952-1.4738-1.6283-2.8324-0.79862-1.0757-1.963-2.7804-2.0616-3.0184-0.0384-0.0927 0.0466-0.34444 0.20378-0.60365 0.14824-0.24461 0.37937-0.68553 0.51373-0.97977 0.27538-0.60311 0.23966-0.74115-0.27878-1.0749-0.17187-0.11067-0.65987-0.42469-1.0844-0.69768-0.42451-0.27299-1.0015-0.68708-1.2822-0.92014-0.26312-0.21853-0.5234-0.38323-0.6032-0.38389zm-6.5539 2.8727c-8e-3 0-0.0153 0-0.0216 1e-3 -0.10059 0.0194-0.274 0.18356-0.38547 0.36485-0.11138 0.18127-0.57616 0.90162-1.0328 1.6007-0.51243 0.78468-0.83003 1.3733-0.83003 1.5384 0 0.3207 0.19817 0.51252 1.2577 1.2174 0.4427 0.29456 1.0008 0.68458 1.2403 0.86671 0.2395 0.18215 0.46608 0.33124 0.50375 0.33124 0.12884 0 1.0268-0.85512 1.0237-0.97754 0-0.0672 0.0894-0.17048 0.19964-0.22945 0.18152-0.0972 1.0072-1.1244 1.0072-1.2531 0-0.0296 0.16213-0.26604 0.36022-0.52565l0.3603-0.47204-0.38531-0.33726c-0.38716-0.33884-1.8139-1.3365-1.9113-1.3365-0.0286 0-0.31613-0.18521-0.63868-0.41148-0.30241-0.21213-0.62561-0.37413-0.74763-0.37769zm-22.739 2.3182c-0.67895 8e-3 -1.193 0.28618-1.6128 0.86465-0.62407 0.86001-0.81177 1.6563-1.0601 4.4988-0.1799 2.0587-0.39115 3.6003-0.50952 3.7167-0.13054 0.12844-0.29722-0.0699-0.6705-0.79789-0.28366-0.55311-0.35973-0.77294-0.62715-1.8121-0.2054-0.79815-0.99841-2.5366-1.5444-3.3858-0.6882-1.0702-1.5509-1.5948-2.6227-1.5948-0.81347 1e-5 -1.2714 0.19541-1.2714 0.54277 0 0.39576 0.29738 1.9925 0.47046 2.5261 0.08971 0.27673 0.27497 0.74093 0.41161 1.0315 0.22269 0.47356 0.28106 0.52808 0.56367 0.52532 0.19038-2e-3 0.47144-0.12091 0.70964-0.30111 0.39212-0.29674 0.39594-0.29737 0.70144-0.11892 0.62058 0.36242 1.7677 2.1081 2.4598 3.7434 0.23884 0.56424 0.66986 1.2998 1.1055 1.8866 0.28699 0.38653 0.41356 0.40489 0.69551 0.1007 0.33521-0.36183 0.45593-1.0555 0.73115-4.2008 0.13282-1.5186 0.25598-2.1196 0.55668-2.7168 0.39659-0.78758 0.88735-1.1068 1.7012-1.1068 0.79131 0 1.3524 0.35203 1.5739 0.98754 0.06146 0.17629 0.16903 0.32046 0.23909 0.32046 0.12519 0 0.48776-0.79887 0.44002-0.96946-0.0134-0.0479 0.0351-0.45675 0.10765-0.90857 0.11715-0.72862 0.11309-0.87863-0.036-1.3275-0.0925-0.27832-0.25427-0.61542-0.35949-0.74922-0.2675-0.34013-1.0934-0.67088-1.8521-0.74176-0.104-0.01-0.20434-0.014-0.30128-0.0128zm13.215 3.854-0.19979 0.25165c-0.64964 0.81792-1.1629 2.1062-1.2674 3.1816-0.0686 0.70474 0.15564 1.4571 0.5079 1.7038 0.24517 0.17177 0.27562 0.17431 0.59825 0.0517 0.38343-0.14578 0.976-0.71095 1.3259-1.2646 0.45992-0.72773 0.47307-0.80394 0.19119-1.108-0.28958-0.31245-0.4884-0.22705-0.59427 0.25512-0.13468 0.61322-0.7391 1.0481-0.89433 0.64362-0.22066-0.57502 0.0494-1.9604 0.5588-2.8667l0.22488-0.40022-0.2257-0.22389zm-31.778 2.837-0.36882 0.28129c-0.37248 0.2841-0.78749 1.0336-0.90919 1.6422-0.07737 0.38681 0.04343 0.40995 0.36346 0.0693 0.47907-0.50996 0.96309-0.23172 0.94564 0.54388-0.0097 0.43682-0.78238 2.7007-1.0849 3.179-0.19452 0.30755-0.47574 1.4132-0.40576 1.5955 0.04676 0.12181 0.10733 0.13753 0.24542 0.0636 0.2114-0.11313 0.60142-0.58393 0.60142-0.7259 0-0.0826 0.44773-1.1777 0.97803-2.3923 0.30274-0.69333 0.52746-1.6572 0.58461-2.5069 0.06811-1.0124-0.02476-1.2626-0.57779-1.5538zm38.81 3.5804c0.51122 6e-3 1.0334 0.29831 1.5869 0.88795 0.5756 0.61319 0.90294 1.0758 0.81997 1.1588-0.0999 0.0998-1.2013 0.12081-2.3915 0.0457-1.6728-0.10562-2.7334-0.53672-2.4451-0.99388 0.15352-0.24329 1.7167-1.0092 2.2112-1.0833 0.0726-0.0109 0.14548-0.016 0.21846-0.0152z" fill="#f0ae6f" stroke-width=".10062"/> <path d="m104.7 40.993-15.321 11.155 30.874 0.12114zm-47.915 34.886-15.53 11.308 5.8745 18.018zm96.111 0.05566 9.4255 29.401 5.9183-18.277zm-93.269 67.603 5.9547 18.264 18.952-0.019zm90.274 0.15508-25.049 18.05 19.211-0.0193z" fill="#f0ae6f" stroke="#f0ae6f" stroke-dashoffset="56.693" stroke-linecap="round" stroke-linejoin="round" stroke-width=".2476" style="paint-order:stroke fill markers"/> <path d="m65.74 53.59-6.0078 18.247 24.96-18.173zm59.27 0.23198 24.996 18.123-5.7858-18.048zm-77.887 56.311-5.9271 18.001 15.497 11.353zm115.19 0.20565-9.5112 29.373 15.376-11.079zm-42.222 52.943-30.875 0.0313 15.289 11.2z" fill="#8e6748" stroke="#8e6748" stroke-dashoffset="56.693" stroke-linecap="round" stroke-linejoin="round" stroke-width=".2476" style="paint-order:stroke fill markers"/> </svg>